<?xml version="1.0" encoding="utf-8"?>
<!-- Generator: Adobe Illustrator 16.0.0, SVG Export Plug-In . SVG Version: 6.00 Build 0)  -->
<!DOCTYPE svg PUBLIC "-//W3C//DTD SVG 1.1//EN" "http://www.w3.org/Graphics/SVG/1.1/DTD/svg11.dtd">
<svg version="1.1" id="Capa_1" xmlns="http://www.w3.org/2000/svg" xmlns:xlink="http://www.w3.org/1999/xlink" x="0px" y="0px"
	 width="500px" height="500px" viewBox="0 0 500 500" enable-background="new 0 0 500 500" xml:space="preserve">
<g>
	<g>
		<path fill-rule="evenodd" clip-rule="evenodd" d="M250.755,0.015C387.644,0.583,500.205,110.203,500,250.208
			c-0.206,139.589-111.544,249.818-250.172,249.777C110.314,499.944-0.298,387.555,0,248.746
			C0.297,111.344,112.532-0.081,250.755,0.015z M209.421,325.403c0,12.778-0.003,25.56,0.001,38.338
			c0.003,10.113,0.071,20.23-0.006,30.349c-0.029,3.828,1.274,6.142,5.453,6.136c17.037-0.027,34.076-0.02,51.114-0.037
			c3.496-0.002,5.191-1.855,5.262-5.285c0.045-2.13,0.095-4.259,0.097-6.389c0.006-43.129-0.008-86.256,0.021-129.385
			c0.005-7.05,0.629-7.638,7.575-7.669c9.76-0.043,19.521,0.035,29.282-0.051c5.686-0.053,6.452-0.804,7.037-6.31
			c0.974-9.174,1.97-18.347,2.815-27.532c0.667-7.241,1.186-14.498,1.65-21.755c0.288-4.541-0.397-5.222-4.972-5.478
			c-1.77-0.098-3.547-0.049-5.321-0.051c-10.297-0.01-20.591-0.03-30.884-0.018c-3.167,0.004-5.73-0.668-5.706-4.586
			c0.037-6.209-0.291-12.451,0.218-18.622c0.752-9.076,4.729-12.535,13.833-12.67c8.517-0.127,17.037,0.013,25.555-0.083
			c6.173-0.069,7.006-0.918,7.035-7.203c0.061-12.955,0.068-25.912-0.009-38.867c-0.036-6.149-0.969-7.135-7.155-7.179
			c-14.375-0.102-28.774-0.545-43.123,0.086c-18.344,0.809-34.964,6.286-46.784,21.542c-8.923,11.511-12.58,24.892-12.998,39.237
			c-0.218,7.448,0.015,14.909-0.095,22.362c-0.075,5.078-0.863,5.85-5.956,5.957c-6.032,0.126-12.069,0.11-18.102,0.081
			c-3.75-0.018-5.546,1.742-5.541,5.499c0.023,16.684,0.029,33.366-0.001,50.05c-0.008,4.09,2.035,5.667,5.98,5.584
			c5.499-0.117,11.002-0.039,16.504,0.008c6.69,0.055,7.192,0.525,7.202,7.388C209.436,281.032,209.416,303.219,209.421,325.403z"/>
		<path fill-rule="evenodd" clip-rule="evenodd" fill="#00FFEA" d="M209.418,325.403c-0.002-22.185,0.018-44.371-0.013-66.555
			c-0.01-6.862-0.512-7.333-7.202-7.388c-5.501-0.047-11.005-0.125-16.504-0.008c-3.945,0.082-5.988-1.494-5.98-5.584
			c0.03-16.684,0.024-33.366,0.001-50.05c-0.005-3.757,1.791-5.517,5.541-5.499c6.033,0.029,12.07,0.045,18.102-0.081
			c5.093-0.106,5.881-0.879,5.956-5.957c0.11-7.453-0.123-14.914,0.095-22.362c0.418-14.345,4.075-27.726,12.998-39.237
			c11.82-15.256,28.44-20.733,46.784-21.542c14.349-0.631,28.748-0.188,43.123-0.086c6.187,0.044,7.119,1.03,7.155,7.179
			c0.077,12.956,0.069,25.913,0.009,38.867c-0.029,6.284-0.862,7.133-7.035,7.203c-8.518,0.097-17.038-0.044-25.555,0.083
			c-9.104,0.136-13.081,3.595-13.833,12.67c-0.509,6.171-0.181,12.413-0.218,18.622c-0.024,3.918,2.539,4.59,5.706,4.586
			c10.293-0.013,20.587,0.007,30.884,0.018c1.774,0.002,3.552-0.047,5.321,0.051c4.574,0.255,5.26,0.937,4.972,5.478
			c-0.465,7.257-0.983,14.514-1.65,21.755c-0.846,9.186-1.842,18.358-2.815,27.532c-0.585,5.506-1.352,6.257-7.037,6.31
			c-9.761,0.086-19.522,0.008-29.282,0.051c-6.946,0.031-7.57,0.619-7.575,7.669c-0.029,43.129-0.016,86.256-0.021,129.385
			c-0.002,2.13-0.052,4.259-0.097,6.389c-0.07,3.43-1.766,5.283-5.262,5.285c-17.038,0.018-34.077,0.01-51.114,0.037
			c-4.179,0.006-5.482-2.308-5.453-6.136c0.077-10.118,0.009-20.235,0.006-30.349C209.418,350.963,209.421,338.182,209.418,325.403z
			"/>
	</g>
</g>
</svg>
