<?xml version="1.0" encoding="utf-8"?>
<!-- Generator: Adobe Illustrator 16.0.0, SVG Export Plug-In . SVG Version: 6.00 Build 0)  -->
<!DOCTYPE svg PUBLIC "-//W3C//DTD SVG 1.1//EN" "http://www.w3.org/Graphics/SVG/1.1/DTD/svg11.dtd">
<svg version="1.1" id="Capa_1" xmlns="http://www.w3.org/2000/svg" xmlns:xlink="http://www.w3.org/1999/xlink" x="0px" y="0px"
	 width="500px" height="500px" viewBox="0 0 500 500" enable-background="new 0 0 500 500" xml:space="preserve">
<g>
	<g>
		<path fill-rule="evenodd" clip-rule="evenodd" d="M250.098,0c137.9,0.041,250.186,112.441,249.901,250.157
			C499.716,388.21,387.902,499.963,250.019,500C112.128,500.039-0.07,387.833,0,249.962C0.07,111.987,112.16-0.042,250.098,0z
			 M97.781,249.666c0.126,0.002,0.252,0.005,0.379,0.007c0,8.161-0.102,16.322,0.02,24.481c0.292,19.45-0.504,39.004,3.246,58.219
			c5.818,29.814,22.437,50.915,51.27,61.75c15.032,5.65,30.798,6.589,46.572,6.708c33.64,0.254,67.287,0.344,100.924-0.07
			c11.402-0.142,22.987-0.997,34.136-3.268c29.257-5.957,49.629-23.013,60.038-51.332c5.507-14.982,6.355-30.69,6.469-46.389
			c0.241-33.332,0.345-66.672-0.071-100.001c-0.146-11.558-0.996-23.292-3.257-34.599c-5.608-28.054-21.685-48.118-48.493-59.015
			c-15.181-6.169-31.236-7.277-47.345-7.501c-24.554-0.342-49.111-0.488-73.667-0.457c-19.536,0.025-39.132-0.384-58.501,2.759
			c-23.597,3.831-42.823,14.987-56.113,35.258c-9.874,15.06-13.583,32.068-14.222,49.738
			C98.399,207.18,98.217,228.428,97.781,249.666z"/>
		<path fill-rule="evenodd" clip-rule="evenodd" fill="#00FFEA" d="M97.781,249.666c0.436-21.238,0.618-42.485,1.385-63.711
			c0.639-17.67,4.348-34.678,14.222-49.738c13.29-20.271,32.516-31.428,56.113-35.258c19.369-3.143,38.966-2.734,58.501-2.759
			c24.555-0.031,49.113,0.115,73.667,0.457c16.108,0.224,32.164,1.333,47.345,7.501c26.809,10.896,42.885,30.96,48.493,59.015
			c2.261,11.308,3.111,23.042,3.257,34.599c0.416,33.329,0.313,66.669,0.071,100.001c-0.113,15.698-0.962,31.406-6.469,46.389
			c-10.409,28.319-30.781,45.375-60.038,51.332c-11.148,2.271-22.733,3.126-34.136,3.268c-33.638,0.414-67.284,0.324-100.924,0.07
			c-15.773-0.119-31.54-1.058-46.572-6.708c-28.833-10.835-45.452-31.936-51.27-61.75c-3.75-19.215-2.955-38.769-3.246-58.219
			c-0.122-8.159-0.02-16.32-0.02-24.481C98.034,249.671,97.907,249.667,97.781,249.666z M249.939,125.27
			c-0.002,0.125-0.005,0.252-0.008,0.379c-10.085,0-20.184-0.327-30.253,0.075c-15.892,0.633-31.929,0.643-47.606,2.942
			c-21.487,3.152-35.844,15.955-42.172,37.081c-3.169,10.581-3.605,21.539-3.741,32.449c-0.336,27.017-0.575,54.039-0.431,81.058
			c0.086,16.06-0.319,32.212,2.703,48.097c4.218,22.167,16.888,37.194,39.089,42.454c10.224,2.422,20.992,3.27,31.539,3.467
			c28.166,0.525,56.35,0.601,84.52,0.275c14.508-0.166,29.167-0.474,43.461-2.662c22.454-3.438,37.547-16.709,42.813-39.122
			c2.403-10.229,3.221-20.996,3.425-31.546c0.534-27.628,0.635-55.273,0.307-82.903c-0.179-14.97-0.563-30.072-2.691-44.85
			c-2.919-20.257-14.328-34.934-34.229-41.422c-7.721-2.516-16.05-3.927-24.172-4.298C291.66,125.79,270.792,125.702,249.939,125.27
			z"/>
		<path fill-rule="evenodd" clip-rule="evenodd" d="M249.939,125.27c20.853,0.433,41.721,0.521,62.551,1.473
			c8.122,0.372,16.451,1.782,24.172,4.298c19.901,6.488,31.311,21.165,34.229,41.422c2.129,14.778,2.513,29.88,2.691,44.85
			c0.328,27.63,0.228,55.275-0.307,82.903c-0.204,10.55-1.021,21.316-3.425,31.546c-5.266,22.413-20.358,35.685-42.813,39.122
			c-14.294,2.188-28.953,2.496-43.461,2.662c-28.17,0.325-56.354,0.25-84.52-0.275c-10.546-0.197-21.315-1.045-31.539-3.467
			c-22.201-5.26-34.871-20.287-39.089-42.454c-3.022-15.885-2.617-32.037-2.703-48.097c-0.145-27.019,0.094-54.041,0.431-81.058
			c0.136-10.91,0.572-21.868,3.741-32.449c6.328-21.126,20.685-33.929,42.172-37.081c15.678-2.299,31.714-2.309,47.606-2.942
			c10.069-0.402,20.167-0.075,30.253-0.075C249.934,125.521,249.937,125.395,249.939,125.27z M249.726,171.844
			c-42.059-0.698-77.326,34.156-77.823,77.36c-0.489,42.518,33.197,76.3,73.778,78.294c44.592,2.19,79.881-32.547,81.837-73.901
			C329.642,208.734,293.869,171.841,249.726,171.844z M330.451,150.784c-10.178-0.014-18.416,8.159-18.418,18.273
			c-0.001,10.039,8.395,18.425,18.404,18.381c10.067-0.043,18.307-8.369,18.289-18.483
			C348.711,158.962,340.499,150.798,330.451,150.784z"/>
		<path fill-rule="evenodd" clip-rule="evenodd" fill="#00FFEA" d="M249.726,171.844c44.144-0.003,79.916,36.89,77.793,81.753
			c-1.956,41.354-37.245,76.092-81.837,73.901c-40.582-1.994-74.268-35.776-73.778-78.294
			C172.4,206,207.667,171.146,249.726,171.844z M199.428,249.583c-0.083,27.85,22.188,50.357,49.924,50.456
			c28.032,0.101,50.566-22.101,50.687-49.939c0.122-28.128-22.122-50.592-50.173-50.671
			C221.888,199.35,199.511,221.602,199.428,249.583z"/>
		<path fill-rule="evenodd" clip-rule="evenodd" fill="#00FFEA" d="M330.451,150.784c10.048,0.014,18.26,8.178,18.275,18.171
			c0.018,10.115-8.222,18.44-18.289,18.483c-10.01,0.043-18.405-8.343-18.404-18.381
			C312.035,158.943,320.273,150.77,330.451,150.784z"/>
		<path fill-rule="evenodd" clip-rule="evenodd" d="M199.428,249.583c0.083-27.981,22.46-50.233,50.438-50.155
			c28.051,0.079,50.295,22.543,50.173,50.671c-0.121,27.839-22.655,50.04-50.687,49.939
			C221.616,299.94,199.345,277.433,199.428,249.583z"/>
	</g>
</g>
</svg>
