<?xml version="1.0" encoding="utf-8"?>
<!-- Generator: Adobe Illustrator 16.0.0, SVG Export Plug-In . SVG Version: 6.00 Build 0)  -->
<!DOCTYPE svg PUBLIC "-//W3C//DTD SVG 1.1//EN" "http://www.w3.org/Graphics/SVG/1.1/DTD/svg11.dtd">
<svg version="1.1" id="LOGO" xmlns="http://www.w3.org/2000/svg" xmlns:xlink="http://www.w3.org/1999/xlink" x="0px" y="0px"
	 width="397.805px" height="186.051px" viewBox="0 0 397.805 186.051" enable-background="new 0 0 397.805 186.051"
	 xml:space="preserve">
<g>
	<g>
		<path d="M395.252,150.196c0,0-0.029,0.03-0.1,0.08l-0.01,0.01c-0.101,0.07-0.181,0.141-0.26,0.21l-0.181,0.141
			c-0.189,0.159-0.38,0.31-0.56,0.449c-0.021,0.021-0.04,0.04-0.05,0.04c-3.29,2.69-6.44,5.341-10.341,7.091
			c-0.859-3.7,2.021-10.07-1.739-12.33c-5.591,2.92-9.42,8.5-14.79,11.76c-2.92,1.78-13.95,3.54-8.181-2.26
			c3.761-3.79,10.391-7.301,11.98-12.28c-7.96,0.51-14.49,9.38-19.89,14.29c-3.721,3.39-4.051-3.82-4.471-5.851
			c-0.2-0.97-0.13-3.02-1.2-3.3c-1.54,1.37-3,2.8-4.439,4.28c-2.311,2.35-6.89,7.6-6.05,0.96c0.319-2.47,0.27-7.14,2.189-9.02
			c1.21-1.181,1.42-1.23,2.521-2.71c2-2.711,2.13-2.83-0.271-5.061c1-1.729,4.04-5.11,3.42-7.22c-3.069,1.64-4.43,6.47-7.85,7.41
			c-1.64,0.449-3.311,0.79-4.97,1.13c-2.46,0.51-2.82,2.13-4.07,4.2c2.58,0.84,5.59,0.26,7.64,2.42
			c-1.35,1.689-10.37,15.189-12.5,11.17c-1.47-2.79,0.021-4.98-2.979-7.011c-4.061-2.739-4.82-2.59-8.101,1.08
			c-1.47,1.641-3.38,6.4-5.609,6.79c-2.96,0.53-3.83-3.76-4.71-5.689c-1.58-3.46-3.19,0.92-5.66,1.37
			c-2.37,0.43-1.37-2.721-1.42-4.25c-0.12-3.94-0.75-4.59,3.439-4.521c8.091,0.141,15.761,0.021,23.19-3.62
			c3.13-1.529,6.5-2.399,8.93-5.05c3.271-3.57,6.471-7.2,9.74-10.77c1.99-2.17,7.46-0.641,9.9-0.49
			c4.149,0.25,8.319-0.05,12.479-0.05c6.8,0.01,17.29,1.699,22.63-3.49c4.08-3.98,6.7-11.4,4.101-16.78
			c-3.431-7.13-12.38-8.21-19.38-8.03c-4.16,0.11-18.54,1.44-20.301-3.51c-1.09-3.05-0.449-7.49-0.52-10.71
			c-0.03-1.79-0.76-4.14,1.689-4.16c2.69-0.02,5.37-0.03,8.061-0.04c6.7-0.03,14.76,1.67,20.72-2.3c6.4-4.26,3.811-13.97,0.15-19.14
			c-4.34-6.13-11.2-11.07-16.63-16.22c-4.761-4.52,10.569-2.12,13-2.71c6.239-1.52,9.659-10.76,7.6-16.32
			c-2.3-6.21-8.87-10.45-15.44-10.77c-7.84-0.38-15.869-0.46-23.75-0.44c-6.71,0.01-16.85-2.88-22.63,1.42
			c-2.72,2.02-3.34,4.99-3.449,8.19c-0.051,1.55,0.159,3.32-0.261,4.82c-0.52,1.84-2.01,0.8-3.609,0.61
			c-7.721-0.91-15.62-0.79-22.681,2.95c-5,2.65-4.699-0.27-4.66-4.71c0.021-3.94,0.061-7.97-1.289-11.73
			c-2.82-7.85-9.841-10.81-17.73-8.3c-6.81,2.17-9.3,10.78-9.3,17.13c-0.01,8.98,0.56,17.98,0.64,26.97
			c0.07,8.62,0.3,17.23,0.391,25.85c0.069,6.74,2.189,16.43-7.62,16.5c-7.48,0.05-12.141-4.22-12.62-11.75
			c-0.53-8.58-0.391-17.21-0.88-25.8c-0.75-13-0.681-26.01-2-38.94c-0.94-9.2-13.551-10.35-20.83-7.87c-5.05,1.72-6.78,5-7.03,10.17
			c-0.21,4.35-0.46,8.74,0.05,13.08c0.351,2.93,1.09,5.56,0.141,8.4c-6.44-5.69-12.331-11.12-20.22-14.75
			c-6.63-3.05-13.43-5.32-20.52-6.92c-2.53-0.32-4.69-0.87-7.27-0.55c-3.98,1.34-6.41,1.97-10.59,1.27
			c-7.57-1.25-17.78,4.48-23.88,8.61c-2.16,1.46-14.42,13.02-15.74,11.27c-3.02-3.99-5.32-8.92-7.27-13.51
			c-1.9-4.49-3.64-9.39-6.55-13.37c-3.6-4.94-11.62-4.75-17.02-3.33c-3.64,0.86-4.27,4.59-5.54,7.56
			c-1.96,4.58-3.56,9.22-5.41,13.82c-1.73,4.32-4.31-2.86-4.79-4.08c-1.36-3.42-2.15-6.87-4.15-10.02c-4.38-6.93-9.62-11.03-18-7.58
			c-5.96,2.46-7.41,12.68-9.4,17.99c-3.16,8.46-6.26,16.93-9.37,25.41c-6.18,16.79-12.12,33.8-18.99,50.311
			c-2.81,6.75,0.97,14.63,7.47,17.52c7.11,3.16,13.58-1.649,16.58-7.979c6.95-14.65,11.66-30.41,17.87-45.4
			c0.84-2.01,1.68-7.01,4.59-6.9c2.39,0.1,4.45,5.99,4.56,7.91c0.17,2.83-2.48,7.3-3.42,9.96c-1.63,4.6-3.31,9.19-5.03,13.76
			c-2.41,6.44-7.72,15.01-4.95,21.93c3.19,7.95,9.6,8.689,17.51,8.939c8.05,0.261,16.15,0.73,24.21,0.73
			c8.26,0.01,14.99-0.81,16.22-10.21c0.95-7.32-4.69-15.77-7.58-22.29c-1.59-3.6-3.18-7.19-4.76-10.79
			c-1.22-2.79-4.97-8.25-4.11-11.37c0.51-1.82,1.36-7.34,3.9-7.39c1.95-0.04,3.66,5.89,4.37,7.23c3.76,7.12,7.59,13.89,8.73,21.9
			c2.04,14.45,7.1,29.2,18.15,39.21c23.12,20.97,61,21.82,84.51,1.36c5.641-4.91,11.13-10.051,14.96-16.561
			c1.95-3.33,2.98-6.2,6.87-2.93c3.271,2.74,6.01,4.939,9.811,6.91c6.529,3.39,14.88,4.47,22.079,3.01
			c2.591-0.53,6.29-2.92,7.15,0.96c0.96,4.29,3.22,7.53,6.05,10.8c3.261,3.76,6.931,7.24,11.37,9.58c2.01,1.06,3.95,2.271,6,3.24
			c1.63,0.77,4.21,0.899,5.57,1.979c1.6,1.261-0.7,1.811-1.76,2.5c-1.891,1.25-3.21,3.13-4.721,4.78c-3.59,3.91-4.199-1.88-4.6-4.33
			c-2.29,1.771-4.09,4.21-6,6.38c-0.85,0.98-6.34,5.641-5.9,1.37c0.301-2.82,1.12-5.45-1.489-7.51c-1.641-1.29-6.07-5.73-5.82-0.18
			c0.189,4.06-0.83,4.76-3.93,6.859c-0.971,1.771-0.08,2.74,1.399,1.37c2.43-2.26,4.38-4.84,8.01-2.99
			c-0.52,4.19-1.869,8.34-0.909,12.49c3.64-2.07,6.14-5.63,9.46-8.13c3.35-2.54,1.18,6.04,1.27,6.12
			c3.311-2.22,6.04-4.97,9.061-7.561c3.75-3.22,1.39,5.29,1.22,5.95c-2.33,9.561,8.02-6.729,10.55-3.649
			c2.54,3.1,0.81,4.729,5.56,2.689c5.49-2.359,2.23,2.12,2.73,5.12c0.49,2.86,7.42-2.479,8.68-3.52
			c3.63-3.021,4.88-2.37,6.271,2.149c2.62-1.42,4.979-4.18,7.64-5.29c3.03-1.25,2.44,6.07,2.57,7.61
			c2.49-1.11,10.109-9.22,12.569-6.57c1.19,1.271,0.891,3.51,1.811,5.01c1.7,2.801,4.96-1.439,6.97-2.729
			c2.181-1.4,2.4,0.82,3.09,2.27c1.011,2.13,3.32,2.391,5.41,2.011c2.69-0.49,5.24-2.29,7.641-3.521c2.77,1.63,0,3.68,1.42,6.021
			c3.31-2.49,6.14-5.73,9.979-7.351c0.45,1.601,0.43,4.95,2.65,4.34c1.54-0.43,3.1-2.17,4.27-3.17
			c4.26-3.62,7.811-7.989,11.891-11.8C396.563,149.045,395.913,149.656,395.252,150.196z M320.873,20.956
			c0.011-0.07,0.011-0.15,0.021-0.23c0-0.01,0-0.01,0-0.02c0.01-0.03,0.01-0.05,0.01-0.08v-0.05c0.01-0.03,0.01-0.05,0.01-0.07
			c0-0.01,0-0.01,0-0.02c0.96-9.66,9.851-7.74,17.5-7.36c4.931,0.24,9.851,0.52,14.78,0.72c5.03,0.2,11.21-0.72,16.04,0.75
			c6.39,1.95,10.04,11.47,4.59,16.38c-3,2.71-7.72,1.79-11.39,1.67c-5.07-0.18-10.181-0.58-15.25-0.34c0.64,1.77,2.5,2.33,3.92,3.3
			c2.149,1.48,3.93,3.7,5.78,5.53c4.67,4.64,9.329,9.29,13.989,13.95c3.19,3.18,6.8,7.4,4.261,12.12c-2.891,5.37-7.601,4.6-13,4.57
			c-5.641-0.03-11.29-0.16-16.94-0.2c-5.19-0.03-3.25,11.34-3.22,14.44c0.029,2.94-1.021,11.859,2.67,12.81
			c5.149,1.33,11.59,0.55,16.89,0.79c7.98,0.351,22.87-1.16,21.82,11.43c-1.021,12.07-20.42,7.881-28.01,7.761
			c-2.271-0.04-14.561,1.359-15.011-1.601c-0.47-3.05,12.12-2.08,14.03-2.09c6.33-0.01,12.66,0.03,19,0.03c3.3,0,7.06-5.18,3.28-7.2
			c-1.79,4.84-3.92,4.14-9.061,4.3c-5.97,0.19-11.97-0.04-17.939-0.18c-2-0.04-4.61,0.34-6.55-0.34c-2.28-0.8-0.94-4.431-0.98-6.33
			c-0.12-6.14-3.56-11.19-4.05-17.23c-0.38-4.65-1.38-10.84-0.51-15.42c1.1-5.75,10.159-4.73,14.31-4.74
			c5.21-0.02,11.08,0.79,16.22-0.07c5.431-0.91,4.5-6.08,0.431-7.9c-0.021,0.78,0.33,3.03-0.12,3.63
			c-2.87,1.96-7.521,0.87-10.74,0.72c-6.97-0.32-15.68-1.23-21.6,3.05c-1.95,1.41-1.341,7.19-1.311,9.3c0,0.57,1.33,10.44-1.82,6.74
			c-2.229-2.62-5.079-4.6-8.05-6.3c-3.66-2.1-3.2-3.75-3.13-7.79c0.04-2.24-0.67-5.79,0.34-7.87c0.79-1.64,4.721-1.28,6.25-2.22
			c1.96-1.2,2.87-4.41,5.45-4.29c3.72,0.17,7.45,0.29,11.18,0.41c5.41,0.17-1.59-5.18-2.699-6.35c-2.971-3.12-5.851-6.34-8.771-9.51
			c-4.72-5.1-13-10.87-12.63-18.49C320.863,21.036,320.873,20.996,320.873,20.956z M332.383,49.256c0-0.05,0-0.1,0.01-0.15
			c0.16-2.99,4.3-1.05,5.06,0.65c-1.22,1.16-3.22,1.09-4.59-0.04h-0.01c-0.08-0.05-0.19-0.15-0.36-0.34
			C332.453,49.336,332.422,49.296,332.383,49.256z M111.823,42.386c0.02-0.02,0.03-0.03,0.04-0.05c0.13-0.16,0.25-0.3,0.36-0.43
			c0.01-0.02,0.03-0.04,0.05-0.06c0.08-0.1,0.16-0.2,0.24-0.3c5.93-7.08,12.48-13.35,20.93-17.39c4.47-2.13,9.2-3.02,14.02-3.94
			c1.21-0.23,4.54,0.66,2.2,2.24c-1.52,1.03-1.81,3.33-1.97,4.98c-0.39,4.21,1.3,8.12,3.57,11.55c2.57,3.88-4.13,4.88-6.63,6.19
			c-7.61,4.02-15.38,11.56-17.14,20.33c-0.27,1.31-1.22,8.58-4.16,4.69c-2.85-3.78-3.23-7.46-1.34-11.6
			c4.12-9.03,11.43-14.64,20.08-18.89c2.21-1.08,1.2-3.31-1.09-3.18c-2.14,0.13-4.66,2.18-6.37,3.31
			c-4.01,2.66-8.17,5.95-11.45,9.48c-1.27,1.38-5.34,9.77-7.06,5.99C114.893,52.666,109.773,45.026,111.823,42.386z M163.903,46.916
			c2.33,0.6,4.72,1.15,7.07,1.81h0.01c1.63,0.46,3.23,0.96,4.78,1.57c7.21,2.81,13.57,10.15,16.39,17.25
			c6.35,15.94-4.7,34.24-20.4,38.73c-1.99,0.57-4.04,0.93-6.12,1.09h-0.01c-8.03,0.63-16.41-1.75-22.99-6.479
			c-0.03-0.03-0.06-0.061-0.1-0.08c-5.37-3.891-9.53-9.37-11.28-16.09c-0.49-1.9-0.83-3.75-1.01-5.57c0-0.03-0.01-0.05-0.01-0.07
			c-0.63-6.8,0.99-13.11,5.04-19.24c4.16-6.3,11.15-7.85,16.88-11.86c0.08-0.06,0.16-0.12,0.23-0.16c0.66-0.47,1.3-0.97,1.91-1.52
			c0.07-0.06,0.15-0.13,0.23-0.21c2.15-1.97,6.39-0.04,8.95,0.71c0.03,0.01,0.06,0.02,0.09,0.03
			C163.683,46.856,163.793,46.886,163.903,46.916z M83.103,80.406c0.01,0.04,0.03,0.07,0.05,0.11c0.01,0.04,0.05,0.13,0.13,0.3
			c0.02,0.05,0.05,0.12,0.09,0.19c0.04,0.09,0.16,0.38,0.23,0.53c0.02,0.04,0.04,0.08,0.06,0.12c0.01,0.03,0.02,0.06,0.03,0.09
			c0.03,0.05,0.04,0.09,0.06,0.12c0.02,0.06,0.05,0.11,0.07,0.17c0.02,0.03,0.03,0.06,0.04,0.08c0.01,0.04,0.03,0.07,0.04,0.1
			c0.01,0.02,0.02,0.03,0.02,0.04c2.18,4.87,4.41,9.68,6.44,14.61c2.06,4.98,4.54,10.66-0.54,14.78
			c-4.66,3.76-14.07,1.77-19.69,1.729c-6.13-0.04-14.62,1.41-20.42-0.68c-12.12-4.37-2.23-21.03,0.57-29.01
			c0.72-2.03,4.79-17.41,7.61-11.21c2.41,5.27-2.82,12.72-4.75,17.57c-0.96,2.42-2.07,4.84-2.75,7.35
			c-0.31,1.26-0.62,2.53-0.92,3.79c1.05,0.74,1.96,0.72,2.6-0.48c1.62-3.05,2.93-6.26,4.02-9.53c0.87-2.63,1.14-6.17,2.72-8.48
			c3.06-4.45,6.69,6.99,5.59,9.3c-0.86,1.799-3.88,5.45-3.08,7.54c0.89,2.36,5.43,1.811,7.31,1.78c1.11-0.01,5.08,0.52,5.75-0.91
			c0.71-1.52-2.63-4.85-3.28-6.16c-2.92-5.9-5.58-11.93-8.31-17.92c-2.85-6.28-5.74-12.54-8.56-18.84c-1.35-3.01-2.66-6.03-3.87-9.1
			c-0.72-1.82-1.23-5.1-2.97-6.23c-4.41,10.33-7.95,21.24-12.14,31.72c-4.47,11.22-8.38,24-14.5,34.419
			c-6.04,10.271-17.19-0.59-14.93-9.449c3.11-12.17,8.54-24.08,12.95-35.83c4.55-12.1,9.22-24.16,13.61-36.31
			c1.68-4.68,3.26-12.12,6.99-15.67c3.39-3.23,10.62-2.72,13.44,1.15c2.88,3.96,4.06,9.76,6.05,14.24c2.89,6.47,5.87,12.9,8.7,19.4
			C72.613,57.416,77.943,68.866,83.103,80.406z M100.413,77.646c-0.02-0.04-0.04-0.09-0.06-0.13c-0.02-0.04-0.04-0.07-0.05-0.11
			c-0.01-0.03-0.46-1.02-0.83-1.84c-0.09-0.2-0.18-0.4-0.27-0.59c-0.12-0.26-0.19-0.43-0.23-0.5c-0.02-0.05-0.04-0.1-0.06-0.14
			c-0.12-0.26-0.17-0.38-0.17-0.38c-0.02-0.03-0.03-0.05-0.04-0.08c-2.71-6-5.44-11.98-8.16-17.98c-1.61-3.54-3.06-7.1-4.52-10.7
			c-1.69-4.18-3.21,3.58-3.55,4.73c-0.48,1.63-1.27,7.54-4.04,7.3c-2.35-0.19-3.63-6.17-4.35-7.93c-1.75-4.25-1.33-5.89,0.48-10.13
			c1.55-3.65,3.43-7.33,4.63-11.11c0.26-0.8,0.55-3.28-0.84-3.21c-1.92,2.68-2.61,6.15-3.62,9.27c-0.4,1.23-1.89,8.18-4.84,5.41
			c-2.11-1.97-2.21-5.32-1.24-7.81c2.71-6.97,4.88-13.7,9.24-19.88c2.74-3.88,6.83-3.77,11.28-2.69c2.61,0.64,4.16,5.8,5.17,7.96
			c2.27,4.82,3.84,9.87,6.09,14.75c6.48,14.05,13.63,27.86,20.48,41.74c3.24,6.56,6.82,13.01,9.76,19.71
			c1.08,2.46,3.09,6.86,2.19,9.6c-0.9,2.72-4.92,5.39-7.52,6.2c-6.53,2.02-11.72-3.57-14.43-8.84c-3.79-7.35-7.07-15-10.47-22.55
			C100.443,77.716,100.443,77.696,100.413,77.646z M214.993,102.316c0,0-0.01,0.01-0.01,0.02c-0.08,0.15-0.16,0.29-0.23,0.421
			c-0.09,0.17-0.18,0.329-0.27,0.5c-0.04,0.069-0.08,0.13-0.11,0.189c-0.029,0.07-0.069,0.14-0.109,0.21
			c0,0.01-0.011,0.021-0.021,0.03c-3.24,5.97-6.08,11.28-10.89,16.27c-5.67,5.87-12.68,10.45-20.37,13.23
			c-16.12,5.82-34.82,5.66-50.01-3.07c-6.35-3.649-12.17-8.07-17.27-13.33c-2.63-2.72-4.78-5.47-6.84-8.649
			c-1.18-1.82-2.23-3.4-2.84-5.5c1.36-0.88,2.87,1.52,3.78,2.529c4.3,4.841,8.41,9.92,15.56,9.181c2.84-0.301,5.6-1.49,7.59-3.551
			c2.15-2.22,2.65-7.659,6.62-5.119c6.08,3.89,10.99,7.439,18.53,8.43c8.29,1.08,16.04-0.54,23.21-4.811
			c12.76-7.609,19.52-22.25,17-36.81c-2.6-15.06-14.58-27.89-29.67-30.88c-6.95-1.37-13.66-0.13-16.19-8.39
			c-2.12-6.91,1.08-14.56,8.84-14.03c18.61,1.28,37.9,11.64,46.41,28.95c1.86,3.78,1.86,8.64,2.28,12.78
			c0.54,5.45,0.87,11.13,0.56,16.6c-0.239,4.38-0.479,8.43,0.83,12.69C212.483,93.806,217.073,98.486,214.993,102.316z
			 M263.223,90.626c-0.011,0.03-0.021,0.06-0.03,0.09c0,0,0,0,0,0.01c-0.021,0.04-0.03,0.07-0.04,0.11l-0.03,0.1
			c-1.31,4.25-0.939,9.67-5.42,11.67c-4.95,2.21-9.45,1.96-14.609,0.87c-1.37-0.29-3.271-0.58-3.601,1.29
			c0.74,2.39,4.24,1.83,6.101,1.92c2.55,0.12,5.1,0.189,7.64,0.07c2.27-0.101,4.6-1.78,6.8-2.4c4.9,7.08-11.75,6.29-15.02,5.96
			c-7.551-0.75-14.79-3.79-20.37-8.96c-5.2-4.82-8.49-10.67-8.86-17.73c-0.46-8.92-0.899-17.83-1.34-26.74
			c-0.41-8.43-1.11-16.81-1.79-25.22c-0.46-5.73-3.29-18.63,3.41-21.93c4.67-3.56,12.18-1.63,14.74,3.56
			c3.029,6.13,1.83,15.02,1.79,21.64c-0.051,7.93-0.16,15.92,0.39,23.84c0.54,7.74-0.96,17.79,2.15,24.97
			c2.47,5.7,8.93,10.03,15.17,9.89c6.1-0.13,12.38-6.01,12.1-12.34c-0.76-17.19-0.39-34.43-0.97-51.63
			c-0.2-5.99-2.25-16.14,2.359-21c4.7-4.94,11.82-2.36,14.62,3.04c2.03,3.89,1.471,7.79,1.76,12.01c0.311,4.65,0.421,9.31,0.5,13.97
			c0.141,9.53,0.141,19.05,0.021,28.58c-0.021,1.09,0.67,9.46-2.69,7.12c-2.01-1.4-0.8-10.01-0.83-12.27
			c-0.159-9.69-0.579-19.38-0.85-29.07c-0.13-4.57-0.15-9.13-0.26-13.7c-0.03-1.22-0.101-2.72-0.58-3.86
			c-0.62-1.48-2.67-1.13-2.771,0.47c-0.479,8.46,0.631,17.52,0.96,26.01c0.381,9.64,0.461,19.3,0.91,28.93
			c0.07,1.62,0.65,4-0.029,5.56c-0.79,1.81-3.24,3.3-4.54,4.77c-2.4,2.73-5.561,6.8-6.771,10.34
			C263.233,90.586,263.233,90.606,263.223,90.626z M288.303,138.625c-0.021-0.01-0.04-0.02-0.061-0.029
			c-0.05-0.011-0.109-0.04-0.17-0.07c-0.07-0.03-0.13-0.06-0.2-0.09c-0.06-0.021-0.12-0.04-0.18-0.07
			c-0.021-0.01-0.04-0.02-0.06-0.03c-0.08-0.029-0.16-0.069-0.25-0.109c-18.341-8.07-26.44-30.271-17.95-48.32
			c3.41-7.26,11.35-15.29,19.88-10.19c9.689,5.8-1.93,17.44-2.84,25.41c-1.101,9.561,4.96,16.051,14.18,17.891
			c9.25,1.84,17.87-4.2,17.54-13.88c-0.32-9.79-9.09-14.301-16.71-18.3c-1.28-0.68-4.44-1.67-4.37-3.57
			c0.06-1.75,1.42-2.41,2.93-1.96c2.73,0.81,10.7,7.24,13.061,5.81c0.83-5.2-12.141-7.52-15.19-9.58
			c-1.92-1.31-2.479-4.11-4.189-5.72c-2.32-2.2-4.9-2.37-7.82-3.06c-2.98-0.69-1.11-15.14-1.09-17.84
			c0.03-3.45,0.04-6.91-0.01-10.36c-0.051-3.1-1.19-7.47,1.76-9.56c5.479-3.9,12.26-4.91,18.84-4.53c7.75,0.44,13.38,1.16,18.7,6.92
			c4.189,4.53,8.75,12.64,0.87,15.67c-7.69,2.96-13.38-2.75-20.65-3.57c-6.21-0.7-12.79,3.72-11.32,10.53
			c1.181,5.49,6.261,9.55,10.971,12c12.189,6.32,25.59,9.08,31.3,23.06c5.43,13.32,3.52,26.55-7.63,36.271
			c-5.2,4.529-11.471,8.54-18.38,9.069C301.973,140.976,295.183,141.386,288.303,138.625z M293.212,98.016
			c0.011-0.01,0.011-0.03,0.021-0.04c0.02-0.04,0.04-0.08,0.05-0.11c3.021-6.35,5.48-3.57,10.01,0.4
			c3.83,3.35,11.051,9.069,7.75,15.069c-3.34,6.08-10.76,3.58-15.439,1.12c-6.37-3.35-5.061-10.63-2.48-16.239c0,0,0,0,0-0.011
			C293.153,98.136,293.183,98.076,293.212,98.016z M312.683,70.526c-3.761-1.77-9.931-3.43-12.44-6.97
			c-2.57-3.62,0.3-7.97,4.521-7.92c2.67,0.03,10.949,1.64,10.88,5.13v0.03c0,0.03,0,0.05-0.01,0.08c0,0.01,0,0.01,0,0.02
			c0,0.01,0,0.01,0,0.02c-0.011,0.04-0.011,0.08-0.011,0.12v0.07C315.493,63.806,316.502,72.316,312.683,70.526z M318.553,152.116
			c0,0.021,0,0.03-0.011,0.05c0,0.051-0.01,0.11-0.02,0.17c-0.01,0.061-0.021,0.11-0.03,0.16c-0.38,1.87-1.99,3.45-3.56,4.391
			c-1.011,0.6-5.561,1.62-4.48-1.101c0.69-1.74,2.521-4.399,4.061-5.479C316.163,149.166,318.733,149.946,318.553,152.116z
			 M376.613,156.835c-3.53-0.329,1.76-7.869,4.55-6.56C384.933,152.056,379.013,157.066,376.613,156.835z"/>
		<path fill="#0BA99C" d="M90.363,96.866c-2.03-4.93-4.26-9.74-6.44-14.61c0-0.01-0.01-0.02-0.02-0.04
			c-0.01-0.03-0.03-0.06-0.04-0.1c-0.01-0.02-0.02-0.05-0.04-0.08c-0.02-0.06-0.05-0.11-0.07-0.17c-0.02-0.03-0.03-0.07-0.06-0.12
			c-0.01-0.03-0.02-0.06-0.03-0.09c-0.02-0.04-0.04-0.08-0.06-0.12c-0.07-0.15-0.19-0.44-0.23-0.53c-0.04-0.07-0.07-0.14-0.09-0.19
			c-0.08-0.17-0.12-0.26-0.13-0.3c-0.02-0.04-0.04-0.07-0.05-0.11c-5.16-11.54-10.49-22.99-15.54-34.58
			c-2.83-6.5-5.81-12.93-8.7-19.4c-1.99-4.48-3.17-10.28-6.05-14.24c-2.82-3.87-10.05-4.38-13.44-1.15
			c-3.73,3.55-5.31,10.99-6.99,15.67c-4.39,12.15-9.06,24.21-13.61,36.31c-4.41,11.75-9.84,23.66-12.95,35.83
			c-2.26,8.859,8.89,19.72,14.93,9.449c6.12-10.42,10.03-23.2,14.5-34.419c4.19-10.48,7.73-21.39,12.14-31.72
			c1.74,1.13,2.25,4.41,2.97,6.23c1.21,3.07,2.52,6.09,3.87,9.1c2.82,6.3,5.71,12.56,8.56,18.84c2.73,5.99,5.39,12.02,8.31,17.92
			c0.65,1.311,3.99,4.641,3.28,6.16c-0.67,1.43-4.64,0.9-5.75,0.91c-1.88,0.03-6.42,0.58-7.31-1.78c-0.8-2.09,2.22-5.74,3.08-7.54
			c1.1-2.31-2.53-13.75-5.59-9.3c-1.58,2.31-1.85,5.85-2.72,8.48c-1.09,3.27-2.4,6.48-4.02,9.53c-0.64,1.2-1.55,1.221-2.6,0.48
			c0.3-1.26,0.61-2.53,0.92-3.79c0.68-2.51,1.79-4.93,2.75-7.35c1.93-4.85,7.16-12.3,4.75-17.57c-2.82-6.2-6.89,9.18-7.61,11.21
			c-2.8,7.98-12.69,24.64-0.57,29.01c5.8,2.09,14.29,0.64,20.42,0.68c5.62,0.04,15.03,2.03,19.69-1.729
			C94.903,107.526,92.423,101.846,90.363,96.866z M44.193,18.276c-1.77,4.37-3.46,8.77-5.2,13.16c-3.28,8.3-6.59,16.58-9.91,24.86
			c-3.38,8.42-6.8,16.82-10.13,25.26c-1.5,3.8-3,7.61-4.46,11.42c-0.33,0.859-3.15,10.649-5.16,7.05c-1.29-2.3,1.97-6.99,2.81-9.07
			c1.91-4.71,3.82-9.41,5.7-14.13c3.48-8.69,6.78-17.45,10.23-26.15c3.36-8.48,6.73-16.96,10.04-25.47c1.29-3.3,2.13-8,4.16-10.89
			c1.48-2.12,5.19-2.52,6.02,0.12c0.01-0.2,0.06-0.17,0.15,0.7C45.503,14.906,45.373,15.356,44.193,18.276z M78.503,97.596
			c-0.02,0.08-0.12,0.18-0.35,0.26c-0.06,0.03-0.14,0.06-0.23,0.08c-5.07-10.7-10.19-21.51-14.88-32.37
			c-2.55-5.92-4.99-12.09-8.01-17.79c-1.32-2.49-2.3-5.18-4.02-7.44c-1.45-1.91-3.04-3.53,0.02-4.98c3.05,3.78,4.54,8.87,6.48,13.31
			c2.59,5.93,5.13,11.88,7.75,17.79c2.6,5.89,5.32,11.72,8.09,17.53C74.343,86.056,80.313,95.516,78.503,97.596z"/>
		<path fill="#0BA99C" d="M130.673,93.306c-2.94-6.7-6.52-13.15-9.76-19.71c-6.85-13.88-14-27.69-20.48-41.74
			c-2.25-4.88-3.82-9.93-6.09-14.75c-1.01-2.16-2.56-7.32-5.17-7.96c-4.45-1.08-8.54-1.19-11.28,2.69
			c-4.36,6.18-6.53,12.91-9.24,19.88c-0.97,2.49-0.87,5.84,1.24,7.81c2.95,2.77,4.44-4.18,4.84-5.41c1.01-3.12,1.7-6.59,3.62-9.27
			c1.39-0.07,1.1,2.41,0.84,3.21c-1.2,3.78-3.08,7.46-4.63,11.11c-1.81,4.24-2.23,5.88-0.48,10.13c0.72,1.76,2,7.74,4.35,7.93
			c2.77,0.24,3.56-5.67,4.04-7.3c0.34-1.15,1.86-8.91,3.55-4.73c1.46,3.6,2.91,7.16,4.52,10.7c2.72,6,5.45,11.98,8.16,17.98
			c0.01,0.03,0.02,0.05,0.04,0.08c0,0,0.05,0.12,0.17,0.38c0.02,0.04,0.04,0.09,0.06,0.14c0.04,0.07,0.11,0.24,0.23,0.5
			c0.09,0.19,0.18,0.39,0.27,0.59c0.37,0.82,0.82,1.81,0.83,1.84c0.01,0.04,0.03,0.07,0.05,0.11c0.02,0.04,0.04,0.09,0.06,0.13
			c0.03,0.05,0.03,0.07,0.03,0.07c3.4,7.55,6.68,15.2,10.47,22.55c2.71,5.27,7.9,10.859,14.43,8.84c2.6-0.811,6.62-3.48,7.52-6.2
			C133.763,100.166,131.753,95.766,130.673,93.306z M126.363,101.666c0,0.011,0,0.021,0,0.021c-0.27,2.45-3.29,2.8-5.26,2.33
			c-3.75-0.891-4.83-4.19-6.25-7.34c-3.01-6.69-6.08-13.34-9.22-19.96c-3-6.32-5.98-12.78-8.69-19.23
			c-2.77-6.6-6.65-12.68-9.45-19.16c-1.14-2.62,0.52-3.15,2.93-2.47c1.45,3.37,2.91,6.74,4.4,10.1c3.45,7.75,6.89,15.51,10.38,23.25
			c2.98,6.6,6.15,13.12,9.25,19.67c2.06,4.33,5.15,15.49,11.93,12.58C126.383,101.536,126.373,101.606,126.363,101.666z"/>
		<path fill="#0BA99C" d="M361.533,99.616c-5.3-0.24-11.74,0.54-16.89-0.79c-3.69-0.95-2.641-9.87-2.67-12.81
			c-0.03-3.1-1.971-14.47,3.22-14.44c5.65,0.04,11.3,0.17,16.94,0.2c5.399,0.03,10.109,0.8,13-4.57
			c2.539-4.72-1.07-8.94-4.261-12.12c-4.66-4.66-9.319-9.31-13.989-13.95c-1.851-1.83-3.631-4.05-5.78-5.53
			c-1.42-0.97-3.28-1.53-3.92-3.3c5.069-0.24,10.18,0.16,15.25,0.34c3.67,0.12,8.39,1.04,11.39-1.67c5.45-4.91,1.8-14.43-4.59-16.38
			c-4.83-1.47-11.01-0.55-16.04-0.75c-4.93-0.2-9.85-0.48-14.78-0.72c-7.649-0.38-16.54-2.3-17.5,7.36c0,0.01,0,0.01,0,0.02
			c0,0.02,0,0.04-0.01,0.07v0.05c0,0.03,0,0.05-0.01,0.08c0,0.01,0,0.01,0,0.02c-0.01,0.08-0.01,0.16-0.021,0.23
			c0,0.04-0.01,0.08-0.01,0.11c-0.37,7.62,7.91,13.39,12.63,18.49c2.92,3.17,5.8,6.39,8.771,9.51c1.109,1.17,8.109,6.52,2.699,6.35
			c-3.729-0.12-7.46-0.24-11.18-0.41c-2.58-0.12-3.49,3.09-5.45,4.29c-1.529,0.94-5.46,0.58-6.25,2.22
			c-1.01,2.08-0.3,5.63-0.34,7.87c-0.07,4.04-0.53,5.69,3.13,7.79c2.971,1.7,5.82,3.68,8.05,6.3c3.15,3.7,1.82-6.17,1.82-6.74
			c-0.03-2.11-0.64-7.89,1.311-9.3c5.92-4.28,14.63-3.37,21.6-3.05c3.22,0.15,7.87,1.24,10.74-0.72c0.45-0.6,0.1-2.85,0.12-3.63
			c4.069,1.82,5,6.99-0.431,7.9c-5.14,0.86-11.01,0.05-16.22,0.07c-4.15,0.01-13.21-1.01-14.31,4.74
			c-0.87,4.58,0.13,10.77,0.51,15.42c0.49,6.04,3.93,11.09,4.05,17.23c0.04,1.899-1.3,5.53,0.98,6.33c1.939,0.68,4.55,0.3,6.55,0.34
			c5.97,0.14,11.97,0.37,17.939,0.18c5.141-0.16,7.271,0.54,9.061-4.3c3.779,2.021,0.02,7.2-3.28,7.2c-6.34,0-12.67-0.04-19-0.03
			c-1.91,0.01-14.5-0.96-14.03,2.09c0.45,2.96,12.74,1.561,15.011,1.601c7.59,0.12,26.989,4.31,28.01-7.761
			C384.403,98.456,369.513,99.966,361.533,99.616z M333.273,29.186c-3.68-3.92,11.42-3.28,12.86-3.24
			c6.279,0.18,12.56,0.22,18.84,0.29c1.199,0.01,2.91,0.02,3.77-1.01c1.07-1.27-0.28-3.01,0.46-4.06c0-0.01,0-0.02,0.01-0.03
			c0.03,0.02,0.061,0.04,0.08,0.06c2.4,1.73,4.28,6.11,0.63,7.68c-3.67,1.57-9.85,0.53-13.8,0.54c-4.22,0.01-9.89-1.27-13.97-0.19
			c-4.05,1.07,3.37,6.22,2.49,7.33c-1.851-0.68-3.16-2.49-4.95-3.47C337.533,31.906,334.983,31.016,333.273,29.186z M353.033,52.436
			c0,0.01,0,0.01,0,0.02h-0.04c-3.49,0.06-5.8-3.3-8.109-5.57c-2.771-2.73-6.141-5.34-7.94-8.82
			C338.943,35.426,353.863,48.856,353.033,52.436z"/>
		<path fill="#0BA99C" d="M335.273,95.076c-5.71-13.98-19.11-16.74-31.3-23.06c-4.71-2.45-9.79-6.51-10.971-12
			c-1.47-6.81,5.11-11.23,11.32-10.53c7.271,0.82,12.96,6.53,20.65,3.57c7.88-3.03,3.319-11.14-0.87-15.67
			c-5.32-5.76-10.95-6.48-18.7-6.92c-6.58-0.38-13.36,0.63-18.84,4.53c-2.95,2.09-1.811,6.46-1.76,9.56
			c0.05,3.45,0.04,6.91,0.01,10.36c-0.021,2.7-1.891,17.15,1.09,17.84c2.92,0.69,5.5,0.86,7.82,3.06c1.71,1.61,2.27,4.41,4.189,5.72
			c3.05,2.06,16.021,4.38,15.19,9.58c-2.36,1.43-10.33-5-13.061-5.81c-1.51-0.45-2.87,0.21-2.93,1.96c-0.07,1.9,3.09,2.89,4.37,3.57
			c7.62,4,16.39,8.51,16.71,18.3c0.33,9.68-8.29,15.72-17.54,13.88c-9.22-1.84-15.28-8.33-14.18-17.891
			c0.91-7.97,12.529-19.609,2.84-25.41c-8.53-5.1-16.47,2.93-19.88,10.19c-8.49,18.05-0.391,40.25,17.95,48.32
			c0.09,0.04,0.17,0.08,0.25,0.109c0.02,0.011,0.039,0.021,0.06,0.03c0.06,0.03,0.12,0.05,0.18,0.07c0.07,0.03,0.13,0.06,0.2,0.09
			c0.061,0.03,0.12,0.06,0.17,0.07c0.021,0.01,0.04,0.02,0.061,0.029c6.88,2.761,13.67,2.351,20.96,1.79
			c6.909-0.529,13.18-4.54,18.38-9.069C338.792,121.625,340.703,108.396,335.273,95.076z M286.903,56.676c-0.01,0-0.01,0-0.02,0
			c0-0.07,0.01-0.12,0.01-0.17c0.229-7.39,7.43-14.76,14.88-15.17c4.27-0.22,8.1,2.01,11.86,3.71c2.3,1.04,4.81,0.95,7.119-0.03
			c1.28-0.54,3.42-1.01,3.46,1.21c0.19,10.21-17.489-1.02-20.8-1.59c-3.47-0.61-7.46,1.36-10.06,3.53
			C291.773,49.486,288.023,56.856,286.903,56.676z M285.763,122.476c-1.78-0.33-3.73-3.42-4.69-4.771
			c-2.72-3.79-3.85-9.02-3.53-13.63c0.301-4.27,2.051-8.26,4.82-11.5c3.17-3.71,2.17-5.5,0.1-8.91c-0.02-0.04-0.05-0.08-0.079-0.12
			c0.069-0.03,0.13-0.05,0.189-0.07c2.47-0.99,6.46-0.91,6.79,2.8c0.32,3.72-5.15,8.97-6.479,12.49
			c-1.471,3.87-1.761,8.06-1.36,12.149c0.43,4.37,3.57,6.75,6.35,9.73C288.763,121.616,286.413,122.596,285.763,122.476z
			 M328.143,124.976c-4.86,5.43-10.28,9.439-17.471,11.13c-2.42,0.57-22.909,2.08-20.579-3.71c0.01-0.021,0.02-0.04,0.029-0.061
			c0.011-0.05,0.04-0.109,0.07-0.17c0.18-0.1,0.31-0.149,0.4-0.17c0.01-0.01,0.01-0.01,0.02-0.01c2.73-1.04,6.7,1.2,9.47,1.34
			c3.69,0.19,7.59-0.149,11.21-0.899c7.271-1.49,12.74-5.92,16.62-12.011c4.09-6.42,4.59-13.729,2.19-20.939
			c-1.08-3.24-2.76-6.26-4.9-8.92c-0.64-0.8-1.979-1.74-2.189-2.8c-0.67-3.42,3.34-0.28,3.83,0.3
			C335.573,98.316,337.462,114.576,328.143,124.976z"/>
		<path fill="#0BA99C" d="M280.672,37.686c-0.079-4.66-0.189-9.32-0.5-13.97c-0.289-4.22,0.271-8.12-1.76-12.01
			c-2.8-5.4-9.92-7.98-14.62-3.04c-4.609,4.86-2.56,15.01-2.359,21c0.58,17.2,0.21,34.44,0.97,51.63c0.28,6.33-6,12.21-12.1,12.34
			c-6.24,0.14-12.7-4.19-15.17-9.89c-3.11-7.18-1.61-17.23-2.15-24.97c-0.55-7.92-0.44-15.91-0.39-23.84
			c0.04-6.62,1.239-15.51-1.79-21.64c-2.561-5.19-10.07-7.12-14.74-3.56c-6.7,3.3-3.87,16.2-3.41,21.93
			c0.68,8.41,1.38,16.79,1.79,25.22c0.44,8.91,0.88,17.82,1.34,26.74c0.37,7.06,3.66,12.91,8.86,17.73
			c5.58,5.17,12.819,8.21,20.37,8.96c3.27,0.33,19.92,1.12,15.02-5.96c-2.2,0.62-4.53,2.3-6.8,2.4c-2.54,0.119-5.09,0.05-7.64-0.07
			c-1.86-0.09-5.36,0.47-6.101-1.92c0.33-1.87,2.23-1.58,3.601-1.29c5.159,1.09,9.659,1.34,14.609-0.87c4.48-2,4.11-7.42,5.42-11.67
			l0.03-0.1c0.01-0.04,0.02-0.07,0.04-0.11c0-0.01,0-0.01,0-0.01c0.01-0.03,0.02-0.06,0.03-0.09c0.01-0.02,0.01-0.04,0.02-0.06
			c1.21-3.54,4.37-7.61,6.771-10.34c1.3-1.47,3.75-2.96,4.54-4.77c0.68-1.56,0.1-3.94,0.029-5.56
			c-0.449-9.63-0.529-19.29-0.91-28.93c-0.329-8.49-1.439-17.55-0.96-26.01c0.101-1.6,2.15-1.95,2.771-0.47
			c0.479,1.14,0.55,2.64,0.58,3.86c0.109,4.57,0.13,9.13,0.26,13.7c0.271,9.69,0.69,19.38,0.85,29.07
			c0.03,2.26-1.18,10.87,0.83,12.27c3.36,2.34,2.67-6.03,2.69-7.12C280.813,56.736,280.813,47.216,280.672,37.686z M227.823,79.516
			c-1.17-7.62-0.939-15.57-1.2-23.27c-0.27-7.96-0.6-15.92-0.97-23.88c-0.16-3.53-0.32-7.06-0.46-10.59
			c-0.06-1.56-0.55-4.93,0.09-6.29c1.87-2.7,2.351,2.21,2.37,3.15c0.06,3.32,0.17,6.63,0.27,9.94c0.25,7.8,0.61,15.58,0.931,23.37
			c0.55,13.11-2.2,29.23,7.43,39.58c0.07,0.07,0.08,0.08,0.08,0.08c0.31,0.35,0.49,0.82,0.76,1.28
			C232.263,96.186,228.243,82.246,227.823,79.516z"/>
		<path fill="#0BA99C" d="M211.373,90.206c-1.31-4.26-1.069-8.31-0.83-12.69c0.311-5.47-0.02-11.15-0.56-16.6
			c-0.42-4.14-0.42-9-2.28-12.78c-8.51-17.31-27.8-27.67-46.41-28.95c-7.76-0.53-10.96,7.12-8.84,14.03
			c2.53,8.26,9.24,7.02,16.19,8.39c15.09,2.99,27.07,15.82,29.67,30.88c2.52,14.56-4.24,29.2-17,36.81
			c-7.17,4.271-14.92,5.891-23.21,4.811c-7.54-0.99-12.45-4.54-18.53-8.43c-3.97-2.54-4.47,2.899-6.62,5.119
			c-1.99,2.061-4.75,3.25-7.59,3.551c-7.15,0.739-11.26-4.34-15.56-9.181c-0.91-1.01-2.42-3.409-3.78-2.529
			c0.61,2.1,1.66,3.68,2.84,5.5c2.06,3.18,4.21,5.93,6.84,8.649c5.1,5.26,10.92,9.681,17.27,13.33
			c15.19,8.73,33.89,8.891,50.01,3.07c7.69-2.78,14.7-7.36,20.37-13.23c4.81-4.989,7.649-10.3,10.89-16.27
			c0.01-0.01,0.021-0.021,0.021-0.03c0.04-0.07,0.08-0.14,0.109-0.21c0.03-0.06,0.07-0.12,0.11-0.189c0.09-0.171,0.18-0.33,0.27-0.5
			c0.07-0.131,0.15-0.271,0.23-0.421c0-0.01,0.01-0.02,0.01-0.02C217.073,98.486,212.483,93.806,211.373,90.206z M186.883,43.176
			c-5.52-3.74-11.92-5.38-18.44-6.32c-3.32-0.48-5.81-0.28-7.83-3.36c-0.86-1.31-2.31-4.77,0.15-5.21c0.04,0.06,0.06,0.1,0.09,0.14
			c0.02,0.03,0.05,0.07,0.06,0.11c1.03,1.62,1.92,3.93,4.03,4.15c3.9,0.4,7.75,0.77,11.55,1.76c6.59,1.7,10.98,5.49,16.13,9.68
			c5.2,4.22,8.69,9.92,11.57,15.91c1.21,2.53,6.28,15.26,1.32,16.08c-1.591-6.8-1.681-13.24-5.63-19.44
			C196.503,51.356,192.113,46.716,186.883,43.176z M200.803,115.446c-5.32,5.47-11.8,9.72-19.03,12.21
			c-7.64,2.64-15.2,3.521-23.23,3.351c-6.87-0.15-17.9-1.58-23.14-6.5c-2.96-2.78-0.38-4.48,2.45-2.23
			c2.82,2.26,6.94,2.91,10.36,3.76c9,2.26,17.64,3.17,26.64,0.61c7.52-2.14,14.64-5.25,20.7-10.26
			c5.85-4.841,8.64-10.601,12.69-16.7c0.2,0.04,0.36,0.08,0.48,0.12c0.199,0.05,0.3,0.1,0.33,0.14
			C213.663,102.116,202.712,113.486,200.803,115.446z"/>
		<path fill="#0BA99C" d="M144.633,45.176c-7.61,4.02-15.38,11.56-17.14,20.33c-0.27,1.31-1.22,8.58-4.16,4.69
			c-2.85-3.78-3.23-7.46-1.34-11.6c4.12-9.03,11.43-14.64,20.08-18.89c2.21-1.08,1.2-3.31-1.09-3.18c-2.14,0.13-4.66,2.18-6.37,3.31
			c-4.01,2.66-8.17,5.95-11.45,9.48c-1.27,1.38-5.34,9.77-7.06,5.99c-1.21-2.64-6.33-10.28-4.28-12.92
			c0.02-0.02,0.03-0.03,0.04-0.05c0.13-0.16,0.25-0.3,0.36-0.43c0.01-0.02,0.03-0.04,0.05-0.06c0.08-0.1,0.16-0.2,0.24-0.3
			c5.93-7.08,12.48-13.35,20.93-17.39c4.47-2.13,9.2-3.02,14.02-3.94c1.21-0.23,4.54,0.66,2.2,2.24c-1.52,1.03-1.81,3.33-1.97,4.98
			c-0.39,4.21,1.3,8.12,3.57,11.55C153.833,42.866,147.133,43.866,144.633,45.176z"/>
		<path d="M237.123,92.886c-4.859,3.3-8.88-10.64-9.3-13.37c-1.17-7.62-0.939-15.57-1.2-23.27c-0.27-7.96-0.6-15.92-0.97-23.88
			c-0.16-3.53-0.32-7.06-0.46-10.59c-0.06-1.56-0.55-4.93,0.09-6.29c1.87-2.7,2.351,2.21,2.37,3.15c0.06,3.32,0.17,6.63,0.27,9.94
			c0.25,7.8,0.61,15.58,0.931,23.37c0.55,13.11-2.2,29.23,7.43,39.58c0.07,0.07,0.08,0.08,0.08,0.08
			C236.672,91.956,236.853,92.426,237.123,92.886z"/>
		<path d="M186.253,152.01c1.908,5.992,3.407,8.643,8.829,3.693c3.472-3.17,7.176-6.951,11.42-9.015
			c1.162,2.59-0.461,5.403,0.613,7.987c2.62,1.537,6.041-3.771,7.971-5.09c0.646,2.152,1.377,8.969,4.656,8.705
			c4.219-0.342,3.744-7.063,3.896-10.164c0.248-5.043,1.465-9.877,3.646-14.44c0.891-1.858,5.36-10.603,7.44-10.591
			c1.536,5.229,1.843,12.209,0.276,17.47c-1.836,6.175-5.98,11.372-8.547,17.233c-1.298,2.966-2.142,6.068-1.93,9.332
			c0.068,1.07,0.594,6.849,2.359,6.979c4.031,0.303,4.955-13.961,5.464-16.652c6.401,1.18,9.677-5.17,13.671-9.498
			c3.288,4.84,10.488-0.51,7.438,8.418c-1.136,3.324-9.83,14.748-13.779,9.764c-1.236-1.561,0.281-6.381-2.27-6.482
			c-2.67-0.111-2.348,5.852-2.802,7.594c-1.638,6.276-5.063,14.476-10.063,18.799c-2.078-4.309-2.75-8.907-3.564-13.605
			c-0.494-2.846-0.479-5.423-0.536-8.285c-0.058-2.705-1.618-1.949-3.467-1.264c-4.202,1.561-3.845-5.32-6.591-4.77
			c-4.262,0.856-8.463,11.41-13.337,8.815c1.267-3.2,2.976-6.044,3.27-9.487c-5.217-2.519-8.268,12.436-13.646,6.444
			c-1.2-1.336-2.461-6.271-5.092-4.483c-3.674,2.496-8.248,1.631-12.399,1.465c-19.04-0.76-38.157-0.775-57.208-0.803
			c-18.987-0.029-37.979-0.652-56.967-0.676c-9.342-0.011-18.682-0.285-28.021-0.51c-5.22-0.124-10.44-0.251-15.66-0.378
			c-1.791-0.043-3.581-0.087-5.37-0.147c-3.21-0.109-3.267,0.12-4.007-3.01c15.485-1.408,31.832,0.993,47.39,1.268
			c16.145,0.283,32.313,0.813,48.461,0.748c16.579-0.066,33.143,0.619,49.714,1.061c7.359,0.195,14.782,0.001,22.164,0.124
			c3.417,0.058,7.396,0.64,10.514-1.138C182.334,156.2,184.063,152.596,186.253,152.01
			C186.407,152.497,185.829,152.125,186.253,152.01z M243.198,162.25c1.891-0.375,11.317-6.115,7.836-8.688
			C247.396,150.875,240.863,158.698,243.198,162.25C243.911,162.11,242.095,160.573,243.198,162.25z M227.778,144.7
			c1.578-1.125,6.396-9.638,3.158-10.91C228.904,134.84,226.627,142.275,227.778,144.7
			C228.208,144.393,226.627,142.275,227.778,144.7z"/>
		<path d="M189.654,137.352c5.335,3.458-2.788,9.336-6.76,7.719C181.924,142.034,185.284,138.15,189.654,137.352
			C192.119,138.95,185.284,138.15,189.654,137.352z"/>
		<path d="M353.387,136.815c-0.471,1.932-7.787,8.846-8.514,4.188C344.176,136.527,350.608,133.471,353.387,136.815
			C352.875,138.911,353.084,136.45,353.387,136.815z"/>
		<path d="M324.821,145.793c-2.186,0.225-10.146,1.713-5.969-2.516C321.249,140.854,324.782,141.885,324.821,145.793
			C322.524,146.03,324.809,144.525,324.821,145.793z"/>
		<path d="M48.443,15.136c-2.94-0.23-3.07,0.22-4.25,3.14c-1.77,4.37-3.46,8.77-5.2,13.16c-3.28,8.3-6.59,16.58-9.91,24.86
			c-3.38,8.42-6.8,16.82-10.13,25.26c-1.5,3.8-3,7.61-4.46,11.42c-0.33,0.859-3.15,10.649-5.16,7.05c-1.29-2.3,1.97-6.99,2.81-9.07
			c1.91-4.71,3.82-9.41,5.7-14.13c3.48-8.69,6.78-17.45,10.23-26.15c3.36-8.48,6.73-16.96,10.04-25.47c1.29-3.3,2.13-8,4.16-10.89
			c1.48-2.12,5.19-2.52,6.02,0.12C48.303,14.236,48.353,14.266,48.443,15.136z"/>
		<path d="M78.503,97.596c-0.02,0.08-0.12,0.18-0.35,0.26c-0.06,0.03-0.14,0.06-0.23,0.08c-5.07-10.7-10.19-21.51-14.88-32.37
			c-2.55-5.92-4.99-12.09-8.01-17.79c-1.32-2.49-2.3-5.18-4.02-7.44c-1.45-1.91-3.04-3.53,0.02-4.98c3.05,3.78,4.54,8.87,6.48,13.31
			c2.59,5.93,5.13,11.88,7.75,17.79c2.6,5.89,5.32,11.72,8.09,17.53C74.343,86.056,80.313,95.516,78.503,97.596z"/>
		<path d="M328.143,124.976c-4.86,5.43-10.28,9.439-17.471,11.13c-2.42,0.57-22.909,2.08-20.579-3.71
			c0.01-0.021,0.02-0.04,0.029-0.061c0.011-0.05,0.04-0.109,0.07-0.17c0.18-0.1,0.31-0.149,0.4-0.17c0.01-0.01,0.01-0.01,0.02-0.01
			c2.73-1.04,6.7,1.2,9.47,1.34c3.69,0.19,7.59-0.149,11.21-0.899c7.271-1.49,12.74-5.92,16.62-12.011
			c4.09-6.42,4.59-13.729,2.19-20.939c-1.08-3.24-2.76-6.26-4.9-8.92c-0.64-0.8-1.979-1.74-2.189-2.8c-0.67-3.42,3.34-0.28,3.83,0.3
			C335.573,98.316,337.462,114.576,328.143,124.976z"/>
		<path d="M287.873,120.646c0.891,0.97-1.46,1.95-2.109,1.83c-1.78-0.33-3.73-3.42-4.69-4.771c-2.72-3.79-3.85-9.02-3.53-13.63
			c0.301-4.27,2.051-8.26,4.82-11.5c3.17-3.71,2.17-5.5,0.1-8.91c-0.02-0.04-0.05-0.08-0.079-0.12c0.069-0.03,0.13-0.05,0.189-0.07
			c2.47-0.99,6.46-0.91,6.79,2.8c0.32,3.72-5.15,8.97-6.479,12.49c-1.471,3.87-1.761,8.06-1.36,12.149
			C281.953,115.286,285.093,117.666,287.873,120.646z"/>
		<path d="M324.212,46.226c0.19,10.21-17.489-1.02-20.8-1.59c-3.47-0.61-7.46,1.36-10.06,3.53c-1.58,1.32-5.33,8.69-6.45,8.51
			c-0.01,0-0.01,0-0.02,0c0-0.07,0.01-0.12,0.01-0.17c0.229-7.39,7.43-14.76,14.88-15.17c4.27-0.22,8.1,2.01,11.86,3.71
			c2.3,1.04,4.81,0.95,7.119-0.03C322.033,44.476,324.172,44.006,324.212,46.226z"/>
		<path d="M200.803,115.446c-5.32,5.47-11.8,9.72-19.03,12.21c-7.64,2.64-15.2,3.521-23.23,3.351c-6.87-0.15-17.9-1.58-23.14-6.5
			c-2.96-2.78-0.38-4.48,2.45-2.23c2.82,2.26,6.94,2.91,10.36,3.76c9,2.26,17.64,3.17,26.64,0.61c7.52-2.14,14.64-5.25,20.7-10.26
			c5.85-4.841,8.64-10.601,12.69-16.7c0.2,0.04,0.36,0.08,0.48,0.12c0.199,0.05,0.3,0.1,0.33,0.14
			C213.663,102.116,202.712,113.486,200.803,115.446z"/>
		<path d="M205.513,76.116c-1.591-6.8-1.681-13.24-5.63-19.44c-3.38-5.32-7.771-9.96-13-13.5c-5.52-3.74-11.92-5.38-18.44-6.32
			c-3.32-0.48-5.81-0.28-7.83-3.36c-0.86-1.31-2.31-4.77,0.15-5.21c0.04,0.06,0.06,0.1,0.09,0.14c0.02,0.03,0.05,0.07,0.06,0.11
			c1.03,1.62,1.92,3.93,4.03,4.15c3.9,0.4,7.75,0.77,11.55,1.76c6.59,1.7,10.98,5.49,16.13,9.68c5.2,4.22,8.69,9.92,11.57,15.91
			C205.403,62.566,210.473,75.296,205.513,76.116z"/>
		<path d="M369.922,28.876c-3.67,1.57-9.85,0.53-13.8,0.54c-4.22,0.01-9.89-1.27-13.97-0.19c-4.05,1.07,3.37,6.22,2.49,7.33
			c-1.851-0.68-3.16-2.49-4.95-3.47c-2.16-1.18-4.71-2.07-6.42-3.9c-3.68-3.92,11.42-3.28,12.86-3.24
			c6.279,0.18,12.56,0.22,18.84,0.29c1.199,0.01,2.91,0.02,3.77-1.01c1.07-1.27-0.28-3.01,0.46-4.06c0-0.01,0-0.02,0.01-0.03
			c0.03,0.02,0.061,0.04,0.08,0.06C371.693,22.926,373.573,27.306,369.922,28.876z"/>
		<path d="M353.033,52.436c0,0.01,0,0.01,0,0.02h-0.04c-3.49,0.06-5.8-3.3-8.109-5.57c-2.771-2.73-6.141-5.34-7.94-8.82
			C338.943,35.426,353.863,48.856,353.033,52.436z"/>
		<path d="M126.383,101.456c0,0.08-0.01,0.15-0.02,0.21c0,0.011,0,0.021,0,0.021c-0.27,2.45-3.29,2.8-5.26,2.33
			c-3.75-0.891-4.83-4.19-6.25-7.34c-3.01-6.69-6.08-13.34-9.22-19.96c-3-6.32-5.98-12.78-8.69-19.23
			c-2.77-6.6-6.65-12.68-9.45-19.16c-1.14-2.62,0.52-3.15,2.93-2.47c1.45,3.37,2.91,6.74,4.4,10.1c3.45,7.75,6.89,15.51,10.38,23.25
			c2.98,6.6,6.15,13.12,9.25,19.67C116.513,93.206,119.603,104.366,126.383,101.456z"/>
	</g>
</g>
</svg>
