<?xml version="1.0" encoding="utf-8"?>
<!-- Generator: Adobe Illustrator 16.0.0, SVG Export Plug-In . SVG Version: 6.00 Build 0)  -->
<!DOCTYPE svg PUBLIC "-//W3C//DTD SVG 1.1//EN" "http://www.w3.org/Graphics/SVG/1.1/DTD/svg11.dtd">
<svg version="1.1" id="LOGO" xmlns="http://www.w3.org/2000/svg" xmlns:xlink="http://www.w3.org/1999/xlink" x="0px" y="0px"
	 width="397.805px" height="186.051px" viewBox="0 0 397.805 186.051" enable-background="new 0 0 397.805 186.051"
	 xml:space="preserve">
<g>
	<g id="NEON_BLUR">
		<path fill-rule="evenodd" clip-rule="evenodd" fill="#AB3CB6" d="M269.511,1.593c1.28,0,2.561,0,3.84,0
			c7.472,1.528,10.745,6.671,11.52,13.731c0.355,3.245,0.178,6.547,0.294,9.821c0.105,2.944,1.15,3.795,3.488,2.535
			c7.212-3.887,14.881-4.432,22.819-3.564c4.853,0.53,4.86,0.466,4.84-4.52c-0.029-7.3,3.555-11.52,10.83-11.176
			c13.333,0.63,26.688,0.511,40.003,1.35c5.743,0.362,10.303,3.3,13.35,8.242c2.934,4.756,2.062,9.497-0.547,14.068
			c-2.362,4.142-6.047,5.288-10.622,4.737c-2.356-0.284-4.782-0.026-7.175,0.05c-0.741,0.024-1.633,0.132-1.886,0.981
			c-0.243,0.812,0.499,1.296,1.016,1.769c1.563,1.429,3.164,2.815,4.741,4.229c5.05,4.53,10.549,8.696,13.519,15.05
			c5.052,10.808,0.397,18.308-11.521,18.505c-6.312,0.104-12.63-0.115-18.944-0.22c-1.468-0.024-2.117,0.586-2.096,2.072
			c0.043,2.998-0.022,5.997,0.021,8.995c0.064,4.435,1.394,6.054,5.718,6.879c1.563,0.298,3.166,0.435,4.758,0.534
			c5.901,0.371,11.811-0.628,17.725,0.223c7.719,1.109,12.984,5.831,13.108,12.007c0.161,8.008-4.955,14.983-12.469,15.732
			c-9.898,0.986-19.897,0.717-29.799-0.091c-4.568-0.372-7.818,0.249-10.864,3.967c-3.467,4.23-6.78,8.676-12.064,11.24
			c-8.178,3.968-16.685,5.456-25.661,5.159c-5.323-0.177-4.739-0.136-4.596,4.495c0.042,1.364-0.932,3.229,0.571,3.993
			c1.594,0.809,2.689-0.948,3.822-1.878c1.264-1.038,2.099-0.692,2.696,0.658c0.531,1.203,0.912,2.479,1.513,3.644
			c1.33,2.578,3.345,2.833,5.146,0.581c1.168-1.458,1.958-3.222,3.152-4.652c1.402-1.678,2.602-4.224,5.359-3.42
			c2.98,0.869,5.409,2.572,5.531,6.227c0.039,1.16,0.166,2.584,1.455,3.065c1.241,0.464,2.19-0.558,3.036-1.312
			c3.218-2.868,5.647-6.404,8.201-9.834c0.536-0.719,0.035-0.981-0.438-1.294c-1.749-1.152-3.83-0.989-5.753-1.458
			c-0.322-0.078-1.119,0.109-0.755-0.657c0.887-1.865,1.861-3.688,4.268-3.919c4.184-0.4,7.538-2.12,9.693-5.9
			c0.44-0.774,1.212-1.37,1.874-2.003c0.205-0.195,0.553-0.24,0.835-0.354c0.029,0.307,0.136,0.63,0.074,0.917
			c-0.431,2.018-1.748,3.562-2.837,5.229c-0.231,0.354-0.841,0.772-0.241,1.217c2.291,1.702,1.354,3.511-0.184,4.775
			c-3.926,3.231-4.496,7.6-4.667,12.184c-0.034,0.893-0.415,2.038,0.52,2.535c1.005,0.535,1.804-0.418,2.471-1.05
			c2.236-2.115,4.431-4.275,6.592-6.468c1.104-1.12,1.585-0.67,1.835,0.591c0.465,2.343,0.777,4.724,1.398,7.023
			c0.5,1.85,1.768,2.218,3.212,0.831c2.336-2.243,4.584-4.577,6.915-6.824c3.294-3.175,6.704-6.196,11.346-7.268
			c0.529-0.122,1.098-0.078,1.648-0.11c-0.197,0.509-0.346,1.043-0.599,1.521c-1.031,1.947-2.632,3.402-4.258,4.827
			c-2.611,2.289-5.604,4.145-7.853,6.843c-0.446,0.536-0.981,1.152-0.66,1.936c0.344,0.835,1.16,0.911,1.928,0.93
			c3.404,0.08,6.641-0.563,9.33-2.766c3.706-3.036,7.285-6.228,10.984-9.272c0.698-0.574,1.516-1.637,2.525-1.133
			c1.218,0.606,1.671,1.956,1.655,3.273c-0.028,2.474-0.205,4.945-0.33,7.418c-0.054,1.062,0.2,1.528,1.293,0.813
			c1.368-0.895,2.837-1.647,4.147-2.616c2.216-1.639,4.341-3.4,6.506-5.106c0.582-0.459,1.213-0.634,1.876-0.187
			c0.469,0.316,0.063,0.552-0.137,0.747c-4.397,4.306-8.431,8.979-13.163,12.946c-3.063,2.568-4.26,2.188-4.941-1.716
			c-0.157-0.898-0.401-1.051-1.213-0.616c-2.35,1.26-4.308,3.023-6.329,4.717c-0.866,0.726-1.822,1.346-2.737,2.014
			c-0.636-1.155-0.265-2.338-0.093-3.515c0.12-0.826-0.157-1.496-0.798-2.015c-0.71-0.575-1.187,0.108-1.698,0.378
			c-1.975,1.04-3.852,2.326-6.09,2.73c-2.189,0.396-4.396,0.505-5.687-1.854c-1.874-3.429-1.847-3.444-4.934-0.865
			c-0.245,0.204-0.479,0.422-0.723,0.629c-2.97,2.522-4.5,1.993-5.236-1.81c-0.629-3.25-1.915-3.99-4.713-2.264
			c-2.742,1.692-5.249,3.768-7.873,5.655c-0.266,0.19-0.627,0.249-0.944,0.37c-0.037-0.309-0.088-0.615-0.11-0.924
			c-0.112-1.553-0.109-3.122-0.351-4.653c-0.295-1.876-1.38-2.496-3.041-1.336c-1.963,1.371-3.875,2.817-5.783,4.265
			c-0.743,0.563-1.033,0.456-1.353-0.456c-1.223-3.488-2.434-3.776-5.393-1.531c-1.746,1.326-3.557,2.575-5.406,3.752
			c-0.995,0.634-2.26,1.484-3.332,0.759c-1.156-0.781-0.379-2.217-0.271-3.368c0.088-0.93,0.773-2.048-0.028-2.727
			c-0.896-0.76-2.002-0.017-2.895,0.439c-2.183,1.115-3.849,1.202-4.794-1.591c-0.62-1.833-2.01-1.941-3.393-0.779
			c-2.078,1.746-4.056,3.61-6.104,5.393c-0.493,0.429-1.066,1.14-1.749,0.787c-0.788-0.407-0.379-1.314-0.273-1.969
			c0.312-1.927,0.766-3.831,1.091-5.757c0.103-0.607,0.143-1.384-0.52-1.718c-0.627-0.315-1.13,0.233-1.574,0.614
			c-2.367,2.028-4.703,4.092-7.084,6.104c-0.553,0.468-1.235,0.782-1.858,1.168c0.091-0.705,0.187-1.409,0.27-2.114
			c0.084-0.714,0.206-1.429,0.217-2.146c0.011-0.704,0.13-1.592-0.599-1.948c-0.7-0.342-1.265,0.327-1.761,0.766
			c-2.663,2.352-5.3,4.732-7.958,7.09c-0.67,0.594-1.069,0.653-1.233-0.474c-0.489-3.368,0.276-6.619,0.917-9.854
			c0.359-1.812-0.512-2.086-1.835-2.147c-2.723-0.126-4.096,2.031-5.864,3.523c-0.492,0.415-1.09,1.153-1.715,0.435
			c-0.53-0.609-0.21-1.562,0.414-1.889c3.245-1.702,4.014-4.466,3.794-7.852c-0.094-1.438,0.782-2.021,2.221-1.375
			c4.467,2.003,5.913,4.656,5.162,9.448c-0.121,0.772-0.437,1.683,0.313,2.247c0.835,0.63,1.596-0.09,2.305-0.467
			c3.106-1.649,4.791-4.758,7.221-7.104c0.566-0.546,1.211-1.01,1.819-1.512c0.179,0.71,0.332,1.428,0.542,2.129
			c0.37,1.233,0.378,2.884,1.893,3.208c1.367,0.293,2.103-1.088,2.915-1.983c1.5-1.653,2.837-3.464,4.908-4.509
			c0.541-0.272,1.343-0.737,1.371-1.158c0.053-0.766-0.793-1.177-1.486-1.337c-3.747-0.865-7.098-2.615-10.35-4.574
			c-7.815-4.709-14.347-10.662-17.276-19.579c-0.978-2.975-2.344-3.541-4.995-2.601c-4.677,1.659-9.486,1.616-14.325,0.972
			c-7.709-1.028-13.991-4.904-19.734-9.877c-2.952-2.557-4.261-2.398-6.149,0.999c-3.129,5.628-7.448,10.222-11.976,14.721
			c-22.012,21.878-55.342,23.159-78.905,9.276c-16.793-9.895-24.644-25.388-27.28-43.842c-1.599-11.191-7.579-20.388-11.964-30.332
			c-0.676-1.533-2.111-1.936-3.175-0.333c-1.637,2.466-2.67,5.322-2.261,8.243c0.649,4.625,3.834,8.277,5.448,12.566
			c2.963,7.878,7.738,14.974,10.211,23.051c3.146,10.271-1.606,16.829-12.237,17.125c-10.4,0.289-20.791-0.218-31.156-0.866
			c-12.286-0.769-17.398-8.691-13.157-20.274c3.535-9.654,7.335-19.219,11.319-28.697c1.721-4.095,1.544-7.713-0.777-11.348
			c-0.604-0.946-1.28-1.969-2.554-1.931c-1.357,0.042-2.143,1.035-2.602,2.191c-1.663,4.182-3.284,8.381-4.899,12.583
			c-4.89,12.724-9.03,25.747-15.033,38.024c-3.759,7.688-11.067,10.481-17.566,6.843c-3.927-2.199-6.033-5.764-7.168-9.995
			c0-1.44,0-2.881,0-4.32c0.353-1.004,0.679-2.018,1.064-3.009c3.089-7.953,6.354-15.841,9.253-23.862
			c7.436-20.572,15.3-40.986,22.315-61.715C37.662,1.737,48.3,0.083,55.605,8.637c2.145,2.511,3.77,5.331,4.881,8.456
			c1.081,3.039,1.964,6.163,3.609,8.972c0.395,0.675,0.797,1.546,1.718,1.489c0.963-0.06,1.123-1.035,1.406-1.755
			c2.175-5.528,4.324-11.065,6.491-16.596c0.838-2.139,2.125-3.763,4.515-4.385c10.398-2.709,16.341,0.179,20.562,10.016
			c2.844,6.629,5.298,13.447,9.462,19.442c0.714,1.029,1.379,1.116,2.38,0.54c2.893-1.665,5.462-3.769,7.928-5.979
			c6.996-6.269,14.726-11.147,23.967-13.429c3.96-0.978,7.874,0.671,11.807-0.12c2.746-0.552,5.327-1.82,8.305-1.336
			c15.918,2.583,30.157,8.626,41.907,19.947c0.764,0.737,1.647,1.349,2.476,2.02c0.553-1.198,0.627-2.469,0.441-3.738
			c-0.67-4.598-0.956-9.208-0.805-13.858c0.325-9.933,2.275-12.886,9.807-14.477c2.561-0.541,5.164-0.608,7.754-0.265
			c6.277,0.832,10.041,3.896,10.512,8.716c1.556,15.922,1.552,31.923,2.384,47.883c0.357,6.85-0.362,13.792,1.228,20.533
			c1.378,5.846,6.977,8.949,13.701,8.018c4.261-0.59,6.093-3.491,5.971-10.04c-0.353-18.82-0.707-37.642-1.237-56.458
			C256.494,12.318,259.871,2.376,269.511,1.593z M163.241,107.673c13.819,0.002,25.909-9.147,29.813-22.56
			c3.532-12.136-1.774-25.43-13.371-32.601c-6.654-4.114-14.507-4.907-21.89-6.968c-0.957-0.267-2.032-0.03-2.821,0.685
			c-2.667,2.416-5.755,4.185-8.985,5.667c-10.448,4.794-15.354,13.278-15.565,24.372
			C130.088,93.843,144.764,107.672,163.241,107.673z M303.715,117.29c3.784,0.075,6.014-1.076,7.455-3.598
			c1.436-2.509,1.16-5.02-0.33-7.361c-3.017-4.736-7.446-8.056-11.833-11.378c-1.364-1.033-2.785-0.695-3.905,0.667
			c-1.396,1.698-2.152,3.712-2.832,5.752c-1.871,5.614-1.187,9.916,2.224,12.382C297.478,115.913,300.903,117.095,303.715,117.29z
			 M315.844,63.509c0.452-2.354-0.057-4.901-3.388-5.93c-1.896-0.585-3.817-1.125-5.764-1.499c-3.058-0.587-5.708,0.174-6.84,3.328
			c-1.157,3.222,0.955,5.197,3.33,6.808c3.094,2.099,6.698,3.138,10.085,4.626c1.098,0.482,1.729-0.26,2.069-1.221
			C315.965,67.85,315.838,66,315.844,63.509z M312.363,157.801c2.806-0.169,4.786-1.673,6.024-4.178
			c0.516-1.042,0.711-2.208-0.404-3.041c-1.096-0.816-2.288-0.686-3.332,0.113c-1.717,1.314-2.85,3.107-3.796,5.015
			C310.111,157.213,310.848,157.767,312.363,157.801z M382.563,151.865c-0.315-0.966-1.106-1.813-2.446-1.348
			c-2.3,0.798-3.667,2.587-4.33,4.89c-0.227,0.784,0.065,1.431,0.957,1.618C378.641,157.425,382.58,154.147,382.563,151.865z
			 M335.421,50.833c0.855-0.135,2.193-0.249,1.994-0.934c-0.396-1.359-1.796-1.909-3.228-2.036c-0.877-0.078-1.56,0.461-1.446,1.21
			C332.966,50.557,334.358,50.567,335.421,50.833z"/>
		<path fill-rule="evenodd" clip-rule="evenodd" fill="#AB3CB6" d="M16.205,155.431c31.65,1.926,63.353,1.943,95.054,2.271
			c20.823,0.216,41.638,1.11,62.468,1.236c4.007,0.023,7.423-0.907,9.803-4.364c0.135-0.196,0.311-0.364,0.471-0.542
			c1.42-1.584,2.431-2.616,3.425,0.55c1.47,4.683,3.579,5.088,7.299,1.824c3.39-2.974,6.531-6.231,10.378-8.677
			c1.648-1.047,2.137-0.553,2.098,1.154c-0.035,1.516-0.142,3.03-0.134,4.546c0.011,1.967,1.157,2.066,2.567,1.366
			c1.905-0.945,3.148-2.681,4.658-4.098c0.285-0.269,0.616-0.488,0.926-0.731c0.159,0.388,0.353,0.764,0.473,1.163
			c0.515,1.715,0.924,3.467,1.538,5.145c0.435,1.187,1.206,2.251,2.681,2.213c1.545-0.04,2.453-1.032,3.01-2.371
			c0.993-2.392,0.853-4.943,0.932-7.445c0.284-8.935,3.861-16.608,8.961-23.708c0.498-0.694,1.097-1.675,1.983-1.475
			c0.396,0.09,0.586,1.353,0.763,2.108c2.349,10.012-0.76,18.76-6.038,27.128c-3.537,5.605-5.986,11.615-4.16,18.491
			c0.317,1.194,0.361,2.901,1.877,3.026c1.572,0.129,2.149-1.456,2.637-2.722c1.522-3.952,1.962-8.13,2.427-12.294
			c0.117-1.054,0.297-1.566,1.617-1.452c2.358,0.201,4.352-0.906,6.019-2.495c1.211-1.155,2.317-2.426,3.412-3.695
			c1.424-1.651,2.39-4.379,5.275-1.611c0.637,0.611,1.955,0.604,2.978,0.703c2.558,0.25,3.314,1.715,2.679,3.981
			c-1.534,5.459-4.948,9.547-9.759,12.376c-2.825,1.661-4.958,0.238-5.249-3.038c-0.129-1.453,0.625-3.778-1.603-3.911
			c-2.271-0.136-2.12,2.265-2.32,3.813c-1.05,8.143-4.113,15.351-9.573,21.523c-0.87,0.983-1.233,0.699-1.606-0.341
			c-2.288-6.371-3.482-12.944-3.467-19.708c0.006-2.526-0.725-3.458-3.243-2.305c-2.193,1.003-3.315-0.357-4.229-2.104
			c-1.693-3.231-2.809-3.405-5.423-0.775c-1.464,1.473-2.79,3.082-4.235,4.574c-0.745,0.771-1.562,1.497-2.443,2.102
			c-1.092,0.751-2.525,1.3-3.548,0.376c-0.672-0.607,0.444-1.664,0.735-2.522c0.626-1.846,1.364-3.655,1.969-5.507
			c0.153-0.471,0.163-1.368-0.081-1.507c-0.444-0.253-1.19-0.246-1.697-0.053c-0.686,0.262-1.353,0.717-1.869,1.244
			c-0.891,0.91-1.729,1.891-2.468,2.928c-3.249,4.564-6.191,5.582-8.917-0.415c-0.921-2.026-2.187-2.496-4.371-1.235
			c-3.838,2.215-8.127,1.04-12.241,0.966c-11.39-0.205-22.778-0.561-34.169-0.687c-27.029-0.299-54.06-0.42-81.088-0.771
			c-16.146-0.209-32.29-0.717-48.434-1.094c-0.837-0.02-1.743,0.048-2.176-0.903c-0.569-1.248-1.072-2.353,1.206-2.287
			C8.052,155.516,12.129,155.431,16.205,155.431z M242.995,160.732c0.18,0.53,0.01,1.896,1.313,1.344
			c2.737-1.156,5.188-2.825,7.024-5.234c0.563-0.738,1.046-1.604,0.357-2.52c-0.687-0.912-1.665-1.222-2.772-0.979
			C246.131,153.95,243.103,157.634,242.995,160.732z M227.718,142.734c0.131,0.685-0.136,1.881,0.737,1.615
			c1.684-0.513,4.291-7.548,3.616-9.244c-0.149-0.374-0.481-0.784-0.83-0.924c-0.178-0.071-0.655,0.372-0.871,0.673
			C228.671,137.231,228.027,139.965,227.718,142.734z"/>
		<path fill-rule="evenodd" clip-rule="evenodd" fill="#AB3CB6" d="M184.535,145.593c-1.495,0.19-1.804-0.69-1.54-2.052
			c0.525-2.71,3.69-5.789,6.446-5.805c1.891-0.012,2.464,1.56,2.119,3.231C191.062,143.381,187.644,145.596,184.535,145.593z"/>
		<path fill-rule="evenodd" clip-rule="evenodd" fill="#AB3CB6" d="M345.06,140.397c0.019-1.897,1.161-3.267,2.885-4.153
			c1.602-0.823,3.282-0.935,4.9,0.053c0.802,0.489,0.959,1.03,0.291,1.835c-1.463,1.763-3.014,3.42-5.143,4.36
			C346.123,143.317,345.072,142.698,345.06,140.397z"/>
		<path fill-rule="evenodd" clip-rule="evenodd" fill="#AC3CB7" d="M320.675,146.613c-1.052-0.353-2.807,0.237-2.653-1.245
			c0.199-1.933,1.824-3.066,3.813-3.134c2.052-0.069,3.504,1.408,3.047,3.117C324.371,147.258,321.985,145.875,320.675,146.613z"/>
	</g>
</g>
</svg>
