<?xml version="1.0" encoding="utf-8"?>
<!-- Generator: Adobe Illustrator 16.0.0, SVG Export Plug-In . SVG Version: 6.00 Build 0)  -->
<!DOCTYPE svg PUBLIC "-//W3C//DTD SVG 1.1//EN" "http://www.w3.org/Graphics/SVG/1.1/DTD/svg11.dtd">
<svg version="1.1" id="Capa_1" xmlns="http://www.w3.org/2000/svg" xmlns:xlink="http://www.w3.org/1999/xlink" x="0px" y="0px"
	 width="500px" height="500px" viewBox="0 0 500 500" enable-background="new 0 0 500 500" xml:space="preserve">
<g>
	<g>
		<path fill-rule="evenodd" clip-rule="evenodd" d="M-8.926,561.375l-0.079-0.075L-8.926,561.375z"/>
		<path fill-rule="evenodd" clip-rule="evenodd" fill="#00FFEA" d="M495.607,224.149c-2.87-34.233-12.928-66.471-29.698-96.615
			c-19.911-35.781-46.914-65.086-81.215-87.217C343.886,13.995,299.14-0.075,250.143,0.46c-8.989,0.495-18.004,0.559-26.918,1.549
			C160.258,9.004,107.337,36.228,65.526,83.501C19.307,135.813-0.793,197.649,4.363,267.219
			c3.391,45.952,18.969,87.758,46.472,124.863c3.619,4.877,11.148,15.134,9.664,20.947c-8.899,34.711-7.41,25.885-16.083,60.654
			c-0.458,1.8-3.923,14.746-4.189,16.585c-0.559,3.926,6.912,10.749,10.723,9.67c2.324-0.701,24.7-8.117,26.976-8.998
			c34.103-13.226,23.479-7.636,58.474-21.612c6.425-2.565,18.247,5.019,24.624,7.532c36.39,14.362,74.202,19.743,113.107,15.581
			c67.038-7.162,122.769-36.262,165.854-88.284C483.225,351.948,501.298,291.493,495.607,224.149z M438.748,341.141
			c-20.33,40.529-50.623,71.678-90.923,92.917c-24.584,12.965-50.662,20.634-78.194,23.29c-6.511,0.635-13.115,0.096-19.665,0.096
			c-32.341,1.059-62.878-6.326-91.776-20.569c-4.788-2.332-9.029-2.471-13.943-0.516c-21.267,8.506-42.598,16.745-63.956,24.933
			c-2.297,0.917-4.888,1.035-7.338,1.515c0.266-2.539,0.178-5.154,0.877-7.591c5.599-20.025,11.224-40.086,17.129-60.035
			c1.483-4.987,0.912-8.634-2.541-12.783c-27.299-33.18-43.958-71.107-47.716-113.986c-3.213-36.581,1.64-72.146,17.091-105.996
			c21.38-46.905,55.081-81.756,101.298-104.32c23.808-11.606,49.1-18.31,75.652-20.076c58.964-3.937,110.926,13.65,154.974,52.541
			c41.22,36.38,64.498,82.749,69.909,137.589C463.495,267.702,456.562,305.639,438.748,341.141z"/>
		<path fill-rule="evenodd" clip-rule="evenodd" d="M250.057,473.492c-34.866,1.127-67.791-6.81-98.965-22.168
			c-5.15-2.537-9.729-2.678-15.039-0.558c-22.915,9.142-45.932,18.028-68.959,26.892c-2.481,0.953-5.272,1.101-7.92,1.624
			c0.292-2.739,0.202-5.58,0.934-8.19c6.049-21.62,12.123-43.233,18.494-64.758c1.591-5.37,0.968-9.288-2.746-13.802
			c-29.453-35.771-47.409-76.68-51.467-122.906c-3.463-39.462,1.778-77.816,18.424-114.316
			c23.071-50.586,59.414-88.179,109.267-112.493c25.678-12.523,52.94-19.753,81.588-21.662
			c63.585-4.24,119.609,14.719,167.122,56.655c44.462,39.237,69.564,89.245,75.381,148.393c4.2,42.662-3.305,83.554-22.511,121.846
			c-21.929,43.716-54.573,77.302-98.057,100.219c-26.5,13.965-54.614,22.268-84.333,25.129
			C264.259,474.065,257.131,473.492,250.057,473.492z M338.344,381.863c13.896,1.888,26.425-5.557,37.479-16.581
			c1.289-1.285,2.531-2.619,3.851-3.875c8.85-8.422,12.742-18.436,10.101-30.674c-0.464-2.152-0.476-4.418-0.592-6.634
			c-0.411-7.933-1.021-8.55-8.354-11.349c-17.752-6.774-35.512-13.528-53.122-20.657c-7.353-2.979-13.675-2.606-19.586,2.871
			c-5.924,5.497-12.065,10.761-17.895,16.354c-3.46,3.319-6.936,3.832-10.931,1.385c-2.412-1.48-4.835-2.954-7.146-4.584
			c-19.941-14.048-37.841-30.344-53.281-49.227c-6.006-7.345-11.59-15.066-16.937-22.906c-4.251-6.233-3.693-8.376,1.382-13.768
			c5.121-5.446,10.041-11.08,15.187-16.5c5.354-5.639,6.173-11.756,3.305-18.955c-7.405-18.59-14.59-37.27-21.673-55.983
			c-1.677-4.434-4.464-6.353-9.095-6.416c-4.234-0.058-8.497-0.306-12.683-0.91c-7.893-1.14-14.831,0.401-20.662,6.109
			c-1.583,1.55-3.526,2.723-5.165,4.219c-12.865,11.748-21.386,25.163-20.972,43.736c0.67,30.177,9.512,57.749,24.594,83.407
			c24.785,42.159,59.838,74.036,101.946,98.148C282.022,372.774,307.688,381.835,338.344,381.863z"/>
		<path fill-rule="evenodd" clip-rule="evenodd" fill="#00FFEA" d="M338.344,381.863c-30.655-0.028-56.321-9.089-80.249-22.789
			c-42.108-24.112-77.162-55.989-101.946-98.148c-15.082-25.658-23.924-53.229-24.594-83.407
			c-0.414-18.573,8.107-31.988,20.972-43.736c1.639-1.496,3.583-2.668,5.165-4.219c5.831-5.708,12.77-7.249,20.662-6.109
			c4.187,0.604,8.449,0.852,12.683,0.91c4.631,0.063,7.418,1.982,9.095,6.416c7.083,18.714,14.268,37.394,21.673,55.983
			c2.869,7.199,2.049,13.316-3.305,18.955c-5.146,5.421-10.066,11.055-15.187,16.5c-5.075,5.391-5.633,7.535-1.382,13.768
			c5.347,7.84,10.93,15.562,16.937,22.906c15.439,18.883,33.339,35.179,53.281,49.227c2.312,1.63,4.734,3.104,7.146,4.584
			c3.995,2.447,7.471,1.935,10.931-1.385c5.829-5.594,11.971-10.857,17.895-16.354c5.911-5.478,12.233-5.851,19.586-2.871
			c17.61,7.129,35.37,13.883,53.122,20.657c7.332,2.799,7.942,3.416,8.354,11.349c0.116,2.216,0.128,4.481,0.592,6.634
			c2.642,12.238-1.251,22.252-10.101,30.674c-1.319,1.256-2.562,2.59-3.851,3.875C364.769,376.307,352.24,383.751,338.344,381.863z"
			/>
	</g>
</g>
</svg>
